<?xml version="1.0" standalone="no"?>
<!DOCTYPE svg PUBLIC "-//W3C//DTD SVG 20010904//EN"
 "http://www.w3.org/TR/2001/REC-SVG-20010904/DTD/svg10.dtd">
<svg version="1.0" xmlns="http://www.w3.org/2000/svg"
 width="200.000000pt" height="200.000000pt" viewBox="0 0 200.000000 200.000000"
 preserveAspectRatio="xMidYMid meet">
<metadata>
Created by potrace 1.14, written by Peter Selinger 2001-2017
</metadata>
<g transform="translate(0.000000,200.000000) scale(0.100000,-0.100000)"
fill="#000000" stroke="none">
<path d="M956 1541 c-14 -15 -16 -26 -9 -47 7 -22 2 -42 -32 -113 -23 -47 -47
-100 -54 -118 -18 -44 -70 -53 -135 -23 -48 21 -97 42 -106 45 -3 0 -25 11
-50 24 -25 13 -47 24 -50 24 -15 -1 -38 26 -44 53 -7 32 -49 63 -77 59 -35 -6
-59 -17 -54 -25 3 -4 -2 -10 -10 -13 -20 -8 -14 -71 9 -96 10 -11 23 -18 27
-15 5 3 9 1 9 -5 0 -10 22 -8 61 4 11 4 17 11 13 16 -6 10 11 3 119 -45 31
-14 57 -22 57 -18 0 4 4 2 8 -3 4 -6 30 -21 57 -33 l50 -23 -1 -50 c0 -47 -3
-52 -75 -128 -61 -64 -78 -77 -92 -70 -50 28 -127 13 -163 -33 l-19 -24 -108
50 c-89 42 -110 57 -125 85 -20 41 -50 54 -83 37 -37 -18 -51 -54 -33 -88 8
-15 18 -27 22 -26 4 0 15 -2 25 -7 11 -4 28 -2 43 6 20 10 29 11 45 1 11 -7
24 -10 29 -7 6 4 10 3 10 -2 0 -4 38 -25 84 -46 73 -34 83 -42 80 -63 -1 -13
6 -40 17 -60 18 -37 18 -38 -3 -73 -12 -20 -25 -38 -28 -41 -11 -10 -40 -60
-35 -60 14 0 -23 -28 -45 -35 -45 -14 -55 -63 -19 -89 35 -24 81 7 73 49 -5
29 106 192 127 186 29 -10 88 -2 113 14 25 17 27 16 91 -29 58 -42 65 -51 65
-81 0 -21 9 -44 24 -62 20 -23 31 -27 67 -26 28 2 46 8 52 19 18 33 47 53 89
64 24 6 49 13 56 15 7 3 14 4 17 5 3 0 19 7 35 15 17 9 30 13 30 11 0 -3 25 4
55 14 43 15 56 16 62 6 24 -39 100 -59 141 -37 14 7 32 -4 85 -54 37 -34 67
-69 67 -77 0 -50 70 -77 103 -40 39 42 11 95 -50 96 -35 1 -49 9 -100 57 -47
44 -58 59 -52 75 11 27 11 74 0 74 -5 0 -8 8 -7 17 0 10 -15 28 -36 42 l-38
24 0 173 c0 150 2 173 16 178 11 4 63 -21 146 -70 113 -67 133 -84 171 -138
24 -33 71 -101 105 -149 34 -48 62 -95 62 -103 0 -20 24 -44 44 -44 35 0 41
64 6 75 -9 3 -45 46 -79 95 -34 49 -68 96 -76 104 -8 8 -15 17 -15 21 0 3 -12
21 -26 40 l-25 34 28 24 c129 113 160 137 173 136 62 -5 90 15 90 65 0 37 -12
51 -52 61 -34 9 -79 -32 -73 -64 3 -15 -15 -36 -68 -83 -40 -35 -74 -65 -77
-68 -47 -47 -39 -48 -174 31 -111 65 -125 77 -128 103 -2 18 -14 37 -31 50
-23 17 -32 18 -56 10 -26 -10 -34 -6 -137 76 -60 48 -112 86 -116 84 -3 -2 -4
5 -1 16 7 26 -23 60 -52 60 -12 0 -30 -9 -39 -19z m187 -172 c94 -75 106 -88
106 -116 1 -22 9 -38 28 -53 l28 -22 0 -166 c1 -230 10 -227 -177 -61 -37 33
-69 60 -72 61 -2 0 -33 26 -68 59 -34 32 -66 59 -70 59 -5 0 -8 11 -8 24 0 13
-7 29 -15 36 -18 15 -15 29 31 124 19 38 32 71 29 74 -2 2 8 20 22 39 17 22
33 33 43 30 10 -2 65 -42 123 -88z m-217 -296 c11 -10 69 -61 129 -113 181
-156 179 -154 166 -178 -6 -11 -11 -32 -11 -45 0 -17 -7 -26 -22 -30 -13 -2
-80 -23 -150 -44 l-126 -40 -12 23 c-19 35 -64 50 -107 35 -20 -7 -38 -9 -42
-5 -3 5 -32 28 -63 51 -54 41 -56 44 -48 73 6 21 4 43 -5 69 l-13 38 74 74
c72 72 76 74 125 75 37 1 54 6 61 17 11 21 19 21 44 0z"/>
</g>
</svg>
